<?xml version="1.0" encoding="utf-8"?>
<!-- Generator: Adobe Illustrator 16.0.0, SVG Export Plug-In . SVG Version: 6.00 Build 0)  -->
<!DOCTYPE svg PUBLIC "-//W3C//DTD SVG 1.1//EN" "http://www.w3.org/Graphics/SVG/1.1/DTD/svg11.dtd">
<svg version="1.1" id="Layer_1" xmlns="http://www.w3.org/2000/svg" xmlns:xlink="http://www.w3.org/1999/xlink" x="0px" y="0px"
	 width="1000px" height="463.374px" viewBox="0 0 1000 463.374" enable-background="new 0 0 1000 463.374" xml:space="preserve">
<g>
	<path fill-rule="evenodd" clip-rule="evenodd" fill="#529BB9" d="M215.083,0c1.401,2.653,1.419,5.637,1.935,8.484
		c2.196,12.144,4.25,24.312,6.41,36.462c0.671,3.777,2.976,6.187,6.725,7.006c8.687,1.897,17.397,3.684,26.083,5.586
		c1.088,0.239,2.98,0.078,2.978,1.359c-0.003,1.276-1.869,1.12-2.975,1.34c-8.396,1.667-16.807,3.256-25.202,4.919
		c-4.52,0.896-6.82,3.476-7.623,8.027c-2.454,13.918-4.973,27.825-7.464,41.738c-0.149,0.835-0.225,1.698-1.166,2.392
		c-1.217-2.492-1.227-5.117-1.648-7.622c-2.08-12.368-4.055-24.753-6.113-37.125c-0.637-3.829-3.266-6.394-7.077-7.153
		c-8.724-1.737-17.45-3.462-26.164-5.252c-0.899-0.185-2.455-0.021-2.473-1.161c-0.021-1.313,1.583-1.14,2.531-1.341
		c8.632-1.833,17.278-3.603,25.919-5.391c3.826-0.792,6.327-3.322,6.989-7.212c2.406-14.129,4.777-28.264,7.184-42.393
		c0.154-0.905,0.498-1.777,0.753-2.664C214.817,0,214.951,0,215.083,0z"/>
	<path fill-rule="evenodd" clip-rule="evenodd" d="M482.381,297.852c-3.524,6.603-5.673,13.402-8.747,19.792
		c-1.147,2.384-2.386,5.025-5.047,5.916c-5.489,1.838-8.792-0.788-9.249-6.495c-0.417-5.216,0.083-10.449,0.401-15.659
		c0.345-5.666,0.836-11.338,1.597-16.962c1.173-8.658,2.343-17.315,3.876-25.93c2.649-14.887,6.192-29.509,11.178-43.796
		c1.497-4.291,4.286-6.515,8.618-6.766c3.253-0.188,6.518-0.191,9.757,0.691c3.786,1.03,3.752,2.28,2.966,5.663
		c-1.855,7.985-4.979,15.592-7.449,23.398c-2.282,7.212-4.007,14.574-6.14,21.824c-0.129,0.438-0.341,1.002,0.398,1.026
		c5.024,0.167,5.153,4.026,5.917,7.576c0.968,4.498,1.294,9.147,3.467,13.371c4.319,8.393,10.758,14.654,18.743,19.53
		c7.054,4.309,14.72,6.973,22.744,8.534c6.488,1.264,13.087,1.785,19.47-0.724c6.408-2.521,10.891-6.607,11.824-13.958
		c0.636-5.014-0.562-9.642-2.198-14.167c-2.922-8.078-7.365-15.377-12.286-22.389c-3.799-5.414-7.959-10.553-12.143-15.663
		c-1.777-2.17-3.638-4.297-5.534-6.371c-7.014-7.669-14.119-15.256-21.639-22.434c-5.045-4.817-10.153-9.576-15.387-14.186
		c-7.845-6.909-16.156-13.234-24.522-19.506c-5.817-4.36-11.5-8.925-17.049-13.652c-5.265-4.485-10.884-8.612-15.712-13.54
		c-5.837-5.958-11.035-12.513-13.393-20.797c-1.77-6.218-1.74-12.306,1.75-17.965c2.359-3.826,6.189-5.575,10.427-6.445
		c3.508-0.72,7.061-1.378,10.655-1.197c6.42,0.323,12.63,1.693,18.5,4.378c7.196,3.292,13.755,7.531,19.105,13.434
		c2.55,2.815,5.251,5.634,5.969,9.56c0.572,3.133,1.012,6.324-0.634,9.356c-0.325,0.6-0.637,1.063-1.312,1.308
		c-0.825,0.3-1.598,1.123-2.504,0.377c-0.783-0.645-0.145-1.395-0.015-2.147c0.499-2.898-1.108-5.173-2.702-7.239
		c-4.513-5.853-10.239-10.378-16.465-14.291c-4.045-2.543-8.335-4.5-13.073-5.372c-3.886-0.715-7.804-1.115-11.682-0.184
		c-3.27,0.785-4.753,4.213-4.297,7.185c0.785,5.115,3.417,9.219,7.019,12.828c2.424,2.429,4.796,4.92,7.177,7.388
		c2.402,2.49,5.461,4.343,8.214,6.498c5.159,4.039,10.303,8.097,15.457,12.142c4.896,3.843,9.826,7.644,14.686,11.531
		c3.864,3.09,7.66,6.264,11.46,9.434c5.806,4.845,11.61,9.692,17.372,14.59c2.598,2.208,5.128,4.5,7.625,6.823
		c5.077,4.721,10.059,9.556,15.183,14.212c4.957,4.503,9.437,9.441,13.99,14.288c7.602,8.091,14.653,16.681,20.646,26.081
		c4.857,7.618,9.043,15.592,10.688,24.518c1.665,9.036,0.51,17.839-5.212,25.381c-4.902,6.463-11.158,11.336-18.882,14.193
		c-6.097,2.256-12.35,3.477-18.84,4.042c-11.516,1.004-22.43-1.154-33.034-5.371c-6.898-2.742-13.313-6.454-19.222-10.894
		c-4.152-3.118-7.807-6.89-11.082-10.971C483.354,299.082,482.901,298.507,482.381,297.852z"/>
	<path fill-rule="evenodd" clip-rule="evenodd" fill="#529BB9" d="M143.463,399.878c-1.838,3.644-3.71,7.017-5.276,10.526
		c-3.265,7.318-7.123,14.339-10.579,21.56c-1.503,3.14-3.111,6.229-4.703,9.325c-0.337,0.655-0.398,1.671-1.474,1.61
		c-0.924-0.053-1.003-0.96-1.309-1.569c-6.533-13.033-13.048-26.077-19.57-39.116c-0.289-0.577-0.608-1.138-1.125-2.1
		c-0.724,5.063-1.383,9.733-2.062,14.4c-0.64,4.397-1.443,8.777-1.909,13.192c-0.44,4.174-1.166,8.301-1.644,12.463
		c-0.114,0.996-0.461,1.189-1.336,1.183c-3.79-0.03-7.58-0.038-11.37,0.001c-1.253,0.014-1.229-0.32-1.021-1.516
		c1.087-6.245,1.93-12.533,2.931-18.794c1-6.254,2.136-12.486,3.122-18.743c1.008-6.394,1.86-12.812,2.868-19.206
		c0.833-5.288,1.81-10.553,2.689-15.835c0.343-2.063,0.616-4.142,0.868-6.219c0.074-0.61,0.03-1.254,0.754-1.444
		c0.863-0.227,1.12,0.457,1.413,1.066c3.205,6.68,6.402,13.362,9.629,20.03c2.543,5.256,5.145,10.483,7.685,15.739
		c2.965,6.137,5.89,12.293,8.838,18.438c0.137,0.284,0.329,0.542,0.645,1.053c2.977-6.282,5.838-12.366,8.737-18.434
		c4.862-10.174,9.748-20.336,14.622-30.505c1.019-2.126,2.038-4.253,3.041-6.387c0.261-0.557,0.493-1.144,1.254-1.022
		c0.751,0.119,0.773,0.715,0.875,1.341c1.152,7.091,2.374,14.169,3.508,21.262c1.001,6.261,1.881,12.541,2.878,18.803
		c0.688,4.32,1.51,8.618,2.225,12.934c0.875,5.286,1.709,10.578,2.545,15.871c0.55,3.485,1.06,6.977,1.615,10.462
		c0.112,0.703,0.242,1.144-0.815,1.122c-3.722-0.076-7.446-0.048-11.169-0.018c-1.053,0.008-1.489-0.331-1.63-1.463
		c-0.761-6.161-1.658-12.304-2.69-18.43c-0.825-4.901-1.383-9.848-2.069-14.773C144.148,404.51,143.821,402.337,143.463,399.878z"/>
	<path fill-rule="evenodd" clip-rule="evenodd" fill="#529BB9" d="M313.647,421.54c0,5.12-0.03,10.242,0.024,15.362
		c0.011,1.06-0.274,1.614-1.278,2.091c-5.163,2.455-10.573,3.811-16.287,3.943c-6.336,0.147-12.637,0.06-18.757-1.978
		c-5.403-1.799-10.353-4.321-14.696-8.074c-4.976-4.301-8.573-9.508-10.886-15.626c-1.3-3.437-1.956-7.007-2.422-10.661
		c-0.902-7.059-0.189-13.914,2.19-20.561c4.472-12.499,13.356-20.462,25.874-24.471c7.205-2.308,14.591-2.431,22.071-1.7
		c3.361,0.328,6.551,1.172,9.754,2.089c1.395,0.399,1.886,1.091,1.249,2.615c-1.307,3.13-2.511,6.311-3.575,9.53
		c-0.399,1.208-1.098,0.786-1.626,0.548c-4.877-2.191-10.022-2.521-15.255-2.344c-6.005,0.203-11.457,2.028-16.198,5.728
		c-7.109,5.547-10.199,13.012-10.5,21.906c-0.227,6.707,1.082,12.915,4.8,18.552c4.192,6.354,10.312,9.785,17.581,11.232
		c4.634,0.922,9.319,0.885,13.983-0.259c1.094-0.268,1.21-0.683,1.192-1.555c-0.067-3.305-0.652-6.587-0.409-9.903
		c0.087-1.191-0.769-1.002-1.474-1.003c-4.124-0.006-8.249-0.066-12.37,0.031c-1.44,0.034-1.79-0.437-1.746-1.802
		c0.097-3.057,0.078-6.119,0.006-9.177c-0.027-1.156,0.372-1.452,1.481-1.447c8.579,0.039,17.159,0.046,25.738-0.006
		c1.238-0.008,1.577,0.354,1.562,1.574C313.61,411.297,313.646,416.418,313.647,421.54z"/>
	<path fill-rule="evenodd" clip-rule="evenodd" fill="#529BB9" d="M812.449,421.604c0,4.987-0.063,9.976,0.041,14.961
		c0.03,1.422-0.484,2.073-1.695,2.651c-5.049,2.406-10.371,3.541-15.933,3.725c-7.082,0.234-14.05-0.213-20.777-2.763
		c-10.963-4.155-18.801-11.449-23.143-22.436c-1.63-4.124-2.396-8.359-2.804-12.769c-0.913-9.895,1.051-19.095,6.473-27.363
		c6.418-9.785,15.703-15.267,27.199-17.343c5.015-0.905,10.021-0.844,15.018-0.652c4.165,0.16,8.246,1.225,12.202,2.672
		c0.938,0.343,0.882,0.737,0.629,1.412c-1.28,3.421-2.572,6.837-3.834,10.265c-0.305,0.829-0.653,1.054-1.579,0.698
		c-8.767-3.363-17.631-3.51-26.255,0.181c-7.384,3.159-12.19,8.977-14.427,16.685c-2.83,9.755-1.911,19.19,3.945,27.632
		c4.254,6.133,10.438,9.562,17.896,10.635c4.434,0.638,8.807,0.713,13.2-0.353c1.007-0.244,1.088-0.651,1.082-1.447
		c-0.021-2.859-0.012-5.719-0.007-8.578c0.002-1.712-0.568-2.554-2.555-2.469c-3.982,0.172-7.978,0.015-11.966,0.074
		c-1.133,0.017-1.489-0.331-1.466-1.465c0.068-3.124,0.076-6.251-0.002-9.375c-0.031-1.212,0.307-1.589,1.555-1.581
		c8.512,0.054,17.023,0.065,25.534-0.008c1.503-0.013,1.71,0.558,1.693,1.851C812.411,411.497,812.449,416.55,812.449,421.604z"/>
	<path fill-rule="evenodd" clip-rule="evenodd" fill="#529BB9" d="M412.21,408.24c0-4.403,0-8.438,0-12.471
		c0-11.035,0.034-22.07-0.038-33.105c-0.01-1.591,0.435-2.027,1.99-1.965c2.986,0.121,5.985,0.119,8.971,0
		c1.492-0.06,1.888,0.369,1.881,1.87c-0.058,14.824-0.035,29.648-0.035,44.473c0,11.367,0.007,22.735-0.019,34.103
		c-0.002,0.584,0.433,1.435-0.44,1.729c-0.805,0.272-0.88-0.658-1.218-1.054c-5.838-6.848-11.617-13.746-17.458-20.591
		c-4.313-5.054-8.72-10.025-13.039-15.073c-2.602-3.041-5.103-6.168-7.683-9.229c-0.399-0.474-0.77-1.062-1.643-1.272
		c0,0.721,0,1.358,0,1.997c0,13.894-0.032,27.787,0.042,41.68c0.009,1.707-0.49,2.118-2.113,2.047
		c-2.985-0.132-5.984-0.114-8.971-0.005c-1.428,0.053-1.77-0.411-1.757-1.788c0.066-7.245,0.031-14.491,0.031-21.737
		c0-18.68,0-37.36,0-56.04c0-0.465-0.025-0.933,0.009-1.396c0.027-0.375,0-0.929,0.22-1.079c0.526-0.362,0.824,0.244,1.093,0.556
		c1.548,1.788,3.072,3.599,4.578,5.423c3.59,4.35,7.164,8.714,10.749,13.067c3.669,4.457,7.325,8.924,11.02,13.358
		c3.616,4.341,7.277,8.645,10.913,12.968C410.179,405.761,411.049,406.833,412.21,408.24z"/>
	<path fill-rule="evenodd" clip-rule="evenodd" fill="#529BB9" d="M689.146,395.732c0,14.276-0.037,28.835,0.047,43.393
		c0.011,1.868-0.525,2.343-2.31,2.256c-2.984-0.145-5.982-0.099-8.972-0.012c-1.244,0.036-1.572-0.359-1.561-1.576
		c0.057-6.248,0.025-12.497,0.025-18.746c0-19.876,0-39.753,0-59.63c0-0.706,0-1.413,0-2.12c0.204-0.117,0.407-0.233,0.611-0.35
		c13.504,16.236,27.008,32.473,40.89,49.164c0-1.196,0-1.88,0-2.563c0-14.292,0.025-28.585-0.037-42.877
		c-0.007-1.577,0.412-2.04,1.981-1.973c2.92,0.127,5.854,0.136,8.771-0.002c1.652-0.078,2.101,0.395,2.093,2.066
		c-0.068,14.558-0.039,29.116-0.039,43.675c0,11.567,0.007,23.134-0.021,34.701c-0.002,0.583,0.44,1.464-0.436,1.727
		c-0.864,0.26-0.956-0.757-1.339-1.2c-2.742-3.183-5.414-6.425-8.12-9.639c-3.51-4.168-7.021-8.337-10.553-12.489
		c-2.556-3.006-5.158-5.973-7.715-8.979c-3.572-4.202-7.096-8.448-10.704-12.621C691,397.058,689.97,396.416,689.146,395.732z"/>
	<path fill-rule="evenodd" clip-rule="evenodd" fill="#529BB9" d="M511.173,401.105c0-12.832,0.022-25.666-0.032-38.498
		c-0.006-1.44,0.292-1.919,1.841-1.91c12.898,0.066,25.798,0.056,38.697,0.011c1.322-0.005,1.885,0.238,1.827,1.717
		c-0.116,2.987-0.114,5.985-0.001,8.974c0.056,1.454-0.462,1.745-1.81,1.735c-8.444-0.058-16.889,0.02-25.332-0.069
		c-1.682-0.018-2.076,0.463-2.062,2.099c0.082,9.242,0.069,18.484,0.008,27.727c-0.01,1.4,0.374,1.789,1.773,1.772
		c6.183-0.075,12.367,0.001,18.55-0.06c1.285-0.013,1.728,0.323,1.686,1.654c-0.096,2.989-0.134,5.988,0.012,8.974
		c0.079,1.627-0.58,1.813-1.955,1.798c-6.05-0.066-12.102,0.015-18.151-0.061c-1.427-0.018-1.999,0.26-1.921,1.832
		c0.138,2.786,0.139,5.589,0,8.374c-0.079,1.579,0.504,1.839,1.924,1.828c8.577-0.063,17.155,0.016,25.731-0.072
		c1.628-0.017,2.003,0.489,1.945,2.011c-0.112,2.988-0.081,5.984-0.009,8.975c0.027,1.155-0.372,1.449-1.481,1.446
		c-13.231-0.032-26.464-0.052-39.695,0.019c-1.696,0.01-1.556-0.859-1.555-1.975C511.179,426.638,511.173,413.872,511.173,401.105z"
		/>
	<path fill-rule="evenodd" clip-rule="evenodd" fill="#529BB9" d="M448.922,401.077c0-12.767,0.032-25.533-0.039-38.299
		c-0.009-1.653,0.414-2.093,2.076-2.083c12.633,0.072,25.266,0.065,37.899,0.006c1.525-0.007,2.085,0.327,2.002,1.952
		c-0.142,2.785-0.135,5.588-0.002,8.374c0.077,1.617-0.323,2.141-2.041,2.121c-8.311-0.096-16.623-0.001-24.934-0.08
		c-1.649-0.016-2.269,0.251-2.245,2.124c0.116,9.175,0.097,18.352,0.012,27.526c-0.015,1.63,0.496,1.965,2.011,1.944
		c6.05-0.082,12.102,0.021,18.151-0.071c1.521-0.023,1.917,0.418,1.86,1.894c-0.115,2.988-0.092,5.985-0.007,8.975
		c0.035,1.235-0.346,1.578-1.571,1.566c-6.183-0.059-12.367,0.021-18.55-0.062c-1.475-0.021-1.962,0.341-1.89,1.864
		c0.129,2.72,0.121,5.454,0.003,8.175c-0.066,1.528,0.326,2.024,1.947,2.008c8.51-0.087,17.022,0.001,25.533-0.078
		c1.599-0.015,2.216,0.3,2.124,2.037c-0.153,2.917-0.086,5.85-0.021,8.774c0.025,1.144-0.196,1.631-1.508,1.625
		c-13.099-0.048-26.198-0.056-39.296,0.007c-1.509,0.007-1.532-0.687-1.53-1.802C448.93,426.743,448.922,413.91,448.922,401.077z"/>
	<path fill-rule="evenodd" clip-rule="evenodd" fill="#529BB9" d="M61.452,401.258c0,12.691-0.036,25.384,0.042,38.075
		c0.011,1.709-0.493,2.112-2.114,2.045c-3.118-0.13-6.247-0.111-9.367-0.005c-1.42,0.049-1.773-0.399-1.761-1.783
		c0.066-7.508,0.031-15.018,0.031-22.526c0-18.074,0.032-36.149-0.048-54.223c-0.008-1.829,0.522-2.222,2.22-2.146
		c3.05,0.137,6.115,0.125,9.167,0.002c1.518-0.062,1.871,0.411,1.864,1.887C61.427,375.475,61.452,388.367,61.452,401.258z"/>
	<path fill-rule="evenodd" clip-rule="evenodd" fill="#529BB9" d="M346.768,401.26c0,12.625-0.045,25.251,0.049,37.876
		c0.014,1.891-0.562,2.326-2.322,2.242c-2.917-0.139-5.849-0.115-8.768-0.005c-1.424,0.054-1.771-0.406-1.759-1.785
		c0.065-7.642,0.031-15.284,0.031-22.925c0-17.942,0.032-35.883-0.049-53.824c-0.008-1.833,0.528-2.224,2.223-2.144
		c2.917,0.138,5.85,0.128,8.768,0.002c1.521-0.066,1.868,0.418,1.861,1.889C346.743,375.477,346.768,388.369,346.768,401.26z"/>
	<path fill-rule="evenodd" clip-rule="evenodd" fill="#529BB9" d="M652.434,401.038c0,12.758-0.032,25.517,0.04,38.274
		c0.009,1.669-0.438,2.144-2.091,2.067c-2.983-0.138-5.98-0.109-8.967-0.008c-1.389,0.048-1.804-0.345-1.785-1.761
		c0.08-5.913,0.033-11.827,0.033-17.741c0-19.669,0.027-39.338-0.044-59.007c-0.007-1.781,0.447-2.262,2.194-2.171
		c2.916,0.154,5.85,0.125,8.769,0.008c1.482-0.06,1.895,0.354,1.887,1.863C652.407,375.387,652.434,388.212,652.434,401.038z"/>
	<path fill-rule="evenodd" clip-rule="evenodd" fill="#529BB9" d="M256.07,76.743c0.902,2.752,1.152,5.652,1.653,8.487
		c1.302,7.378,2.499,14.775,3.75,22.162c0.52,3.072,2.243,4.974,5.364,5.627c6.035,1.262,12.057,2.59,18.081,3.908
		c0.673,0.147,1.731,0.125,1.68,1.006c-0.04,0.698-1.079,0.612-1.703,0.736c-5.789,1.145-11.582,2.264-17.376,3.38
		c-4.03,0.776-5.372,2.216-6.131,6.428c-1.696,9.397-3.429,18.788-5.146,28.182c-0.106,0.579-0.073,1.208-0.686,1.668
		c-0.875-0.427-0.722-1.364-0.833-2.04c-1.547-9.423-3.052-18.854-4.519-28.29c-0.51-3.282-2.208-5.214-5.345-5.853
		c-5.848-1.19-11.694-2.387-17.542-3.582c-0.808-0.165-2.115-0.062-2.085-0.999c0.028-0.891,1.386-0.803,2.182-0.972
		c5.708-1.209,11.433-2.337,17.144-3.532c3.51-0.734,4.986-2.315,5.583-5.818c1.625-9.543,3.247-19.087,4.884-28.628
		c0.108-0.632,0.334-1.244,0.505-1.866C255.71,76.748,255.89,76.745,256.07,76.743z"/>
	<path fill-rule="evenodd" clip-rule="evenodd" fill="#529BB9" d="M214.745,195.163c-0.699-4.1-1.356-7.874-1.982-11.654
		c-0.583-3.532-1.118-7.072-1.701-10.604c-0.335-2.028-1.446-3.379-3.529-3.805c-4.289-0.877-8.578-1.745-12.864-2.634
		c-0.534-0.111-1.404,0.05-1.38-0.754c0.02-0.647,0.84-0.502,1.321-0.607c4.081-0.884,8.153-1.818,12.258-2.574
		c2.446-0.45,3.74-1.829,4.135-4.178c1.109-6.603,2.201-13.209,3.303-19.814c0.115-0.687,0.066-1.438,0.827-2.102
		c0.935,2.384,1.039,4.832,1.484,7.189c0.911,4.818,1.673,9.665,2.505,14.498c0.452,2.625,1.58,3.755,4.241,4.311
		c3.893,0.813,7.791,1.604,11.669,2.479c0.733,0.165,1.623,0.08,2.181,0.809c-0.215,0.653-0.788,0.595-1.282,0.693
		c-3.967,0.788-7.93,1.599-11.902,2.362c-3.411,0.655-4.324,1.562-4.925,5.007c-1.093,6.269-2.179,12.539-3.317,18.799
		C215.653,193.323,215.72,194.179,214.745,195.163z"/>
	<path fill-rule="evenodd" clip-rule="evenodd" fill="#529BB9" d="M166.587,138.16c3.207-0.686,6.413-1.374,9.621-2.056
		c2.896-0.615,3.359-1.048,3.868-3.958c0.799-4.569,1.547-9.146,2.328-13.718c0.121-0.709,0.298-1.408,0.491-2.312
		c0.937,1.169,0.818,2.417,1.028,3.54c0.781,4.168,1.452,8.356,2.219,12.527c0.509,2.768,1.139,3.32,3.981,3.895
		c2.663,0.538,5.322,1.096,7.978,1.667c0.563,0.122,1.105,0.337,1.954,0.602c-1.194,0.782-2.308,0.809-3.364,1.013
		c-1.236,0.239-2.468,0.498-3.705,0.729c-6.393,1.201-6.366,1.204-7.414,7.658c-0.626,3.858-1.35,7.701-2.027,11.551
		c-0.068,0.392-0.074,0.809-0.75,1.031c-0.672-3.99-1.338-7.951-2.007-11.911c-0.088-0.522-0.214-1.04-0.276-1.564
		c-0.748-6.305-1.428-5.543-6.334-6.546c-2.338-0.478-4.677-0.952-7.013-1.438c-0.183-0.038-0.349-0.155-0.523-0.236
		C166.624,138.476,166.605,138.318,166.587,138.16z"/>
	<path fill-rule="evenodd" clip-rule="evenodd" fill="#529CB9" d="M171.691,197.04c2.315-0.498,4.626-1.02,6.947-1.488
		c2.869-0.579,3.227-0.934,3.692-3.822c0.56-3.47,1.125-6.939,1.708-10.405c0.085-0.506,0.284-0.994,0.746-1.512
		c0.521,2.917,1.042,5.833,1.566,8.749c0.246,1.369,0.569,2.729,0.728,4.109c0.182,1.575,1.065,2.307,2.539,2.61
		c2.709,0.556,5.406,1.177,8.113,1.953c-2.424,1.069-5.016,1.336-7.537,1.815c-1.908,0.363-2.886,1.226-3.174,3.194
		c-0.519,3.54-1.242,7.05-1.867,10.575c-0.104,0.587-0.143,1.186-0.768,1.986c-0.559-3.275-1.095-6.287-1.582-9.307
		c-1.064-6.607-0.376-5.684-6.525-6.951C174.745,198.23,173.138,198.141,171.691,197.04z"/>
	<path fill-rule="evenodd" clip-rule="evenodd" d="M1000,288.109c-0.947,1.507-0.471,3.258-0.707,4.871
		c-1.497,10.165-4.632,19.704-11.091,27.768c-5.378,6.713-12.346,11.224-21.168,12.539c1.95,6.398,3.875,12.794,5.849,19.175
		c4.868,15.733,9.418,31.556,13.145,47.603c1.774,7.637,3.66,15.257,5.122,22.955c1.232,6.498,1.328,13.105-0.787,19.489
		c-0.863,2.606-2.3,5.046-4.1,7.167c-5.754,6.777-13.288,10.794-21.761,12.684c-6,1.339-12.224,1.136-18.434,0.622
		c-6.684-0.554-13.217-1.651-19.703-3.266c-5.423-1.35-10.626-3.313-15.771-5.435c-8.627-3.556-16.806-7.96-24.488-13.269
		c-4.8-3.318-9.457-6.812-13.861-10.658c-3.726-3.254-7.462-6.493-10.83-10.111c-5.238-5.628-10.347-11.391-14.575-17.831
		c-4.809-7.324-8.604-15.155-10.651-23.731c-1.911-8.008-1.352-15.687,3.396-22.712c3.023-4.474,7.514-6.683,12.548-7.99
		c3.423-0.888,6.978-1.22,10.456-1.138c10.604,0.252,20.87,2.282,30.736,6.361c6.344,2.622,12.545,5.538,18.566,8.789
		c8.729,4.714,17.124,9.981,24.863,16.255c3.571,2.896,7.073,5.855,10.275,9.148c4.312,4.435,7.734,9.537,10.874,14.841
		c1.768,2.984,3.462,5.998,4.253,9.42c1.137,4.913,1.322,9.755-0.989,14.438c-0.553,1.119-1.316,1.962-2.597,2.061
		c-1.37,0.104-1.624-1.107-2.063-2.013c-4.214-8.679-8.694-17.203-14.364-25.047c-2.817-3.898-5.787-7.663-8.956-11.297
		c-2.959-3.393-6.189-6.473-9.557-9.411c-4.284-3.739-8.911-7.049-13.847-9.889c-4.957-2.853-10.111-5.331-15.279-7.77
		c-6.99-3.299-14.168-5.947-21.946-6.835c-4.742-0.542-9.394-0.463-14.054,0.455c-4.155,0.817-6.979,4.055-7.789,8.299
		c-1.063,5.571,0.381,10.643,2.614,15.591c3.161,7.002,7.77,12.992,13.18,18.398c8.612,8.606,17.606,16.772,27.852,23.416
		c6.944,4.503,14.063,8.727,21.429,12.533c6.842,3.535,13.837,6.637,21.248,8.772c3.975,1.146,7.97,2.043,12.115,2.428
		c3.932,0.365,7.76,0.548,11.666-0.396c6.274-1.515,9.532-5.83,11.217-11.602c1.677-5.747,0.626-11.507-0.589-17.169
		c-2.126-9.903-5.458-19.473-8.366-29.159c-3.294-10.971-6.615-21.932-10.018-32.87c-1.919-6.172-4.059-12.278-5.78-18.503
		c-0.567-2.052-2.088-1.797-3.261-2.025c-9.833-1.915-19.162-5.181-27.971-9.953c-7.003-3.795-13.171-8.667-18.474-14.574
		c-3.493-3.892-6.433-8.219-8.774-13.188c-1.016,2.508-1.992,4.839-2.909,7.193c-2.777,7.131-6.516,13.653-11.532,19.493
		c-4.98,5.799-10.867,10.072-18.235,12.226c-5.32,1.555-10.627,1.815-16.154,0.831c-6.354-1.132-11.826-3.776-16.693-7.86
		c-0.721-0.605-1.134-0.746-2.001-0.123c-5.963,4.287-12.392,7.397-19.827,8.345c-6.359,0.81-12.263,0.107-17.597-3.643
		c-4.509-3.17-6.915-7.787-8.48-12.872c-1.281-4.159-1.947-8.467-2.01-12.824c-0.072-5.09-0.177-10.189,0.389-15.264
		c0.345-3.097,0.741-6.189,1.207-9.27c0.237-1.569,0.193-3.16-1.311-3.849c-1.567-0.718-3.162,0.07-4.517,1.036
		c-4.697,3.351-7.089,8.292-8.904,13.498c-1.986,5.695-2.862,11.612-3.376,17.657c-0.377,4.447,0.017,8.799,0.188,13.182
		c0.115,2.966,0.752,5.914,1.209,8.862c0.247,1.594-0.451,2.529-2.026,2.634c-3.391,0.227-6.503-0.852-9.606-1.99
		c-2.313-0.85-4.516-1.835-6.303-3.651c-0.926-0.941-1.453-2.064-1.631-3.22c-0.425-2.769-0.716-5.573-0.802-8.372
		c-0.045-1.462-0.598-2.806-0.853-4.415c-0.798,1.375-1.567,2.768-2.4,4.12c-4.802,7.806-11.566,13.213-19.984,16.781
		c-5.086,2.156-10.35,2.709-15.691,2.27c-5.254-0.432-9.87-2.836-13.847-6.221c-4.864-4.142-8.634-9.225-11.361-14.988
		c-1.688-3.566-2.965-7.326-4.513-11.217c-1.472,2.547-2.82,5.044-4.321,7.446c-4.752,7.606-10.093,14.683-17.712,19.744
		c-2.786,1.851-5.941,2.531-9.092,2.836c-5.394,0.521-10.654-0.277-15.203-3.539c-3.244-2.327-5.286-5.72-7.143-9.132
		c-3.666-6.738-5.579-14.12-7.432-21.641c-1.688,0.774-2.366,2.462-3.492,3.657c-2.826,2.999-6.255,4.731-10.202,5.549
		c-0.929,0.191-1.982,0.188-2.477-0.946c-0.57-1.308-0.768-2.6,0.235-3.829c1.268-1.553,3.182-2.205,4.714-3.408
		c3.628-2.849,5.779-6.679,7.868-10.641c1.604-3.039,1.588-6.229,1.596-9.504c0.01-4.688-0.356-9.393,0.373-14.063
		c0.316-2.029,0.823-4.003,1.589-5.918c0.902-2.258,4.104-3.108,6.11-2.87c2.777,0.33,5.365,1.157,7.902,2.324
		c2.62,1.206,3.982,3.269,4.312,5.964c0.522,4.275,0.836,8.575,1.233,12.865c0.956,10.304,2.292,20.536,6.08,30.262
		c0.84,2.155,2.058,4.167,3.543,5.938c1.92,2.291,5.063,2.602,8.45,1.153c4.151-1.776,7.15-4.844,9.449-8.592
		c5.2-8.478,8.121-17.831,9.914-27.521c0.801-4.329,1.321-8.73,1.75-13.139c0.419-4.302,0.7-8.631,1.758-12.892
		c1.004-4.044,3.351-6.296,7.276-6.953c3.689-0.618,7.408-0.753,11.142-0.081c1.296,0.233,2.177,0.934,2.878,1.856
		c5.612,7.383,10.962,14.925,15.318,23.16c3.401,6.429,6.35,13.004,8,20.087c1.994,8.559,2.47,17.066-1.277,25.39
		c-1.092,2.425-2.568,4.571-4.17,6.991c6.663-1.547,11.137-5.485,14.491-10.975c3.564-5.832,5.222-12.225,5.986-18.942
		c0.354-3.124,0.823-6.256,0.722-9.381c-0.225-6.95-1.078-13.836-2.929-20.57c-0.511-1.855-0.971-3.728-1.394-5.606
		c-0.405-1.806,0.773-3.315,2.915-3.572c5.607-0.674,11.069-0.299,16.413,1.852c3.206,1.29,4.684,3.646,5.38,6.738
		c1.032,4.582,2.505,9.074,2.838,13.801c0.027,0.389,0.553,0.563,0.511,1.107c1.713-2.794,3.45-5.48,5.444-7.989
		c4.342-5.46,9.216-10.176,16.236-12.054c3.147-0.843,6.084-0.048,8.877,1.139c4.665,1.981,8.574,4.923,11.441,9.28
		c1.569,2.386,1.705,4.903,1.237,7.326c-1.207,6.238-3.028,12.359-4.176,18.605c-0.75,4.086-1.526,8.249-1.265,12.447
		c0.238,3.828,0.855,7.554,3.812,10.479c1.729,1.71,3.89,2.335,6.078,2.636c5.014,0.688,9.64-0.749,13.921-3.298
		c0.923-0.55,1.445-1.208,0.762-2.682c-2.032-4.379-3.038-9.094-3.89-13.852c-1.036-5.791-1.443-11.618-1.115-17.458
		c0.419-7.459,1.891-14.713,5.994-21.143c4.314-6.763,10.614-10.785,18.423-12.072c7.552-1.244,15.045-0.876,22.064,2.792
		c7.287,3.809,9.981,10.946,9.071,18.124c-1.296,10.229-6.279,18.647-12.144,26.692c-4.096,5.619-8.616,10.888-14.044,15.309
		c-1.167,0.949-1.992,2.293-3.468,2.896c4.742,5.495,11.42,6.58,17.645,3.679c7.986-3.723,13.37-10.133,17.856-17.412
		c3.717-6.034,6.67-12.426,8.168-19.402c1.261-5.872,2.049-11.75,0.38-17.714c-0.46-1.645,0.201-3.624,3.113-3.855
		c5.111-0.404,9.915,1.059,14.496,2.987c1.787,0.754,3.088,2.727,3.788,4.801c1.559,4.61,3.328,9.154,5.628,13.435
		c2.812,5.235,6.079,10.164,10.037,14.677c6.35,7.237,14.094,12.16,23.308,15.252c-1.539-5.804-3.605-11.293-4.727-17.039
		c-0.913-4.679-1.791-9.365-2.738-14.037c-1.25-6.167-1.992-12.413-2.726-18.646c-0.791-6.716-0.754-13.512-0.353-20.24
		c0.275-4.604,0.789-9.289,2.303-13.729c2.174-6.37,5.677-11.818,12.556-13.592c9.409-2.426,18.33-0.853,26.603,4.449
		c7.536,4.829,12.517,11.844,17.214,19.193c4.266,6.676,7.08,13.91,8.796,21.602c0.889,3.983,1.738,7.979,1.868,12.084
		c0.014,0.402-0.279,0.961,0.388,1.168C1000,279.063,1000,283.586,1000,288.109z M947.003,259.591
		c0.962,6.366,2.072,12.731,3.583,18.986c2.99,12.381,6.891,24.511,10.653,36.677c0.32,1.038,0.816,1.384,1.644,1.15
		c1.092-0.308,2.227-0.17,3.277-0.424c9.08-2.191,15.218-7.717,18.265-16.553c2.4-6.963,3.173-14.083,2.507-21.477
		c-0.387-4.287-0.862-8.559-1.812-12.711c-1.92-8.396-4.979-16.41-9.471-23.811c-3.341-5.505-7.729-9.903-13.912-12.105
		c-4.654-1.657-9.461-0.596-12.069,4.581c-2.565,5.096-3.429,10.422-3.087,16.249C946.191,253.174,946.524,256.426,947.003,259.591z
		 M830.464,304.426c0.205,0.816,0.318,2.392,2.135,0.955c2.716-2.147,5.058-4.643,7.124-7.318
		c6.298-8.158,11.315-17.01,12.929-27.379c0.424-2.728,0.06-5.609-2.33-7.475c-1.892-1.477-5.688-1.531-8.235,0.198
		c-2.969,2.015-4.933,4.84-6.437,7.904c-3.916,7.978-5.961,16.458-6.109,26.354C829.31,299.332,829.83,301.902,830.464,304.426z
		 M695.79,297.616c-0.571-5.147-2.161-10.118-4.236-14.909c-2.71-6.257-6.194-11.954-11.353-16.518
		c-0.619-0.547-0.815-0.653-1.072,0.349c-1.255,4.891-2.624,9.751-3.954,14.622c-0.139,0.506-0.359,0.723,0.509,1.063
		c2.377,0.929,4.68,2.036,6.581,3.924c2.307,2.289,3.835,5.022,5.273,7.852c2.349,4.616,4.261,9.449,6.903,14.103
		C696.741,304.716,696.17,301.034,695.79,297.616z"/>
	<path fill-rule="evenodd" clip-rule="evenodd" d="M0,265.762c0.969-1.289,0.549-2.891,0.694-4.271
		c1.197-11.401,3.823-22.437,7.655-33.226c3.279-9.229,8.032-17.601,13.974-25.357c5.722-7.468,12.095-14.182,20.729-18.298
		c10.386-4.952,20.424-4.035,29.894,2.36c1.745,1.178,3.25,2.871,4.45,4.726c0.609,0.942,0.698,1.924,0.068,2.713
		c-0.685,0.858-1.598,0.194-2.301-0.196c-1.894-1.051-3.502-2.502-5.628-3.267c-4.42-1.59-8.618-0.807-12.837,0.591
		c-7.872,2.608-12.382,8.821-16.491,15.443c-5.599,9.022-8.483,19.074-10.583,29.327c-1.13,5.52-1.627,11.185-2.211,16.818
		c-0.435,4.201-0.493,8.442-0.456,12.57c0.051,5.655,0.1,11.376,0.874,17.065c0.916,6.733,1.829,13.441,3.722,19.97
		c1.391,4.795,3.04,9.502,5.944,13.665c3.027,4.34,6.832,7.581,12.127,8.7c2.868,0.606,5.598-0.323,8.03-1.61
		c4.341-2.298,7.629-5.848,10.439-9.853c0.417-0.594,0.63-0.954,0.274-1.725c-4.571-9.899-7.832-20.267-10.926-30.699
		c-1.661-5.602-3.325-11.204-4.333-16.957c-1.028-5.864-1.018-11.818-0.81-17.749c0.312-8.897,1.265-17.739,4.428-26.125
		c1.808-4.793,4.172-9.35,9.312-11.627c6.345-2.812,14.449-0.924,17.857,6.064c2.469,5.063,3.845,10.316,4.696,15.795
		c0.914,5.886,1.191,11.825,1.676,17.75c0.482,5.901,0.447,11.797,0.206,17.662c-0.2,4.856-0.773,9.731-1.393,14.585
		c-0.567,4.446-1.166,8.896-1.725,13.346c-0.467,3.712-1.185,7.396-1.903,11.071c-0.24,1.229,0.217,2.193,0.768,3.109
		c2.948,4.9,5.61,10.025,9.251,14.434c4.621,5.594,9.481,11.047,16.178,14.348c2.778,1.37,5.738,2.332,8.8,2.612
		c3.092,0.283,5.624-1.374,7.607-3.535c4.913-5.352,6.893-12.091,8.396-18.973c1.72-7.873,2.244-15.861,2.548-23.917
		c0.182-4.817-0.016-9.618-0.275-14.366c-0.441-8.086-1.552-16.138-2.965-24.153c-2.213-12.559-5.467-24.81-9.677-36.82
		c-2.518-7.188-5.472-14.199-8.745-21.086c-4.39-9.238-9.431-18.088-15.171-26.547c-3.931-5.792-8.021-11.469-12.754-16.64
		c-1.983-2.167-3.102-1.962-4.305,0.725c-0.725,1.619-1.121,3.384-1.728,5.061c-0.319,0.879-0.906,1.562-1.962,1.53
		c-1.074-0.032-1.708-0.796-1.974-1.655c-1.231-3.981-1.513-8.116-1.157-12.214c0.285-3.267,0.566-6.59,1.544-9.756
		c0.675-2.185,1.082-4.492,2.609-6.351c1.279-1.557,2.883-1.542,4.399-0.746c5.466,2.866,10.465,6.404,15.009,10.61
		c1.445,1.337,2.951,2.614,4.346,4.011c7.438,7.449,13.933,15.675,19.877,24.339c7.28,10.611,13.558,21.813,19.052,33.436
		c3.826,8.094,7.193,16.395,10.088,24.877c3.131,9.174,5.721,18.507,7.512,28.023c0.826,4.39,1.341,8.861,1.775,13.336
		c0.355,3.664,0.582,7.365,0.578,10.986c-0.011,9.885-1.589,19.608-4.417,29.121c-2.089,7.025-4.734,13.799-8.202,20.264
		c-3.596,6.703-7.98,12.81-13.648,17.897c-4.654,4.177-9.964,7.327-16.194,8.481c-5.75,1.066-11.354,0.032-16.735-2.053
		c-5.039-1.952-9.358-5.064-13.481-8.553c-6.044-5.112-10.76-11.289-14.962-17.896c-0.848-1.332-1.455-1.146-2.365-0.387
		c-3.88,3.241-8.126,5.916-12.748,7.939c-9.088,3.978-18.146,4.455-27.346,0.043c-6.642-3.186-12.375-7.504-17.177-12.961
		c-7.018-7.977-11.848-17.187-14.661-27.481c-1.333-4.879-2.505-9.753-2.783-14.815c-0.007-0.13-0.234-0.249-0.359-0.373
		C0,274.542,0,270.152,0,265.762z M73.231,272.01c1.313-12.107,2.745-23.778-1.308-35.831
		C68.027,248.526,69.429,260.092,73.231,272.01z"/>
	<path fill-rule="evenodd" clip-rule="evenodd" d="M222.083,319.28c-4.101,4.083-8.929,7.009-14.518,8.45
		c-8.062,2.078-16.061,1.921-23.313-2.604c-5.413-3.379-8.791-8.572-10.633-14.663c-1.014-3.35-1.327-6.837-1.733-10.32
		c-0.364-3.116-0.045-6.141,0.127-9.191c0.481-8.483,2.718-16.431,8.405-22.954c3.525-4.043,8.238-6.296,13.494-7.443
		c3.302-0.722,6.623-0.792,9.971-0.8c1.586-0.004,3.111,0.405,4.68,0.518c1.142,0.083,1.247-0.129,1.354-1.091
		c0.4-3.577,0.813-7.126,2.305-10.511c1.307-2.964,4.12-3.685,6.507-3.038c3.883,1.053,6.302,3.83,8.305,7.013
		c3.579,5.688,5.071,12.116,6.429,18.604c1.403,6.706,1.385,13.487,1.097,20.246c-0.219,5.141-1.296,10.209-3.338,15.005
		c-0.198,0.466-0.708,0.855-0.083,1.49c3.396,3.455,6.945,6.535,11.89,7.723c3.968,0.953,7.125-0.376,9.998-2.755
		c1.799-1.491,3.276-3.308,4.445-5.412c0.529-0.951,0.587-1.468,0.076-2.354c-4.375-7.579-7.698-15.599-10.187-23.993
		c-1.742-5.874-3.032-11.825-3.969-17.874c-0.81-5.23-1.254-10.479-1.665-15.756c-0.49-6.299-0.495-12.6-0.204-18.859
		c0.354-7.606,2.047-15.035,5.077-22.106c2.727-6.363,6.468-12.019,11.719-16.53c3.243-2.785,6.902-4.781,11.448-2.936
		c2.4,0.974,4.237,2.696,5.374,4.888c2.91,5.609,4.603,11.646,5.809,17.844c1.033,5.312,1.505,10.67,2.058,16.043
		c0.939,9.118,0.654,18.233,0.631,27.349c-0.004,1.666-0.162,3.401-0.363,5.086c-0.189,1.591,0.616,1.979,1.88,2.236
		c5.403,1.098,10.826,1.971,16.332,2.457c3.061,0.27,6.149,0.215,9.188,0.728c1.157,0.196,1.538-0.308,1.378-1.417
		c-0.542-3.788-1.107-7.574-1.568-11.373c-0.197-1.62-0.27-3.275-0.344-4.892c-0.161-3.489-0.786-6.964-0.488-10.474
		c0.152-1.783-0.396-3.54-0.354-5.289c0.16-6.655,0.304-13.32,0.802-19.955c0.649-8.655,1.548-17.312,3.976-25.689
		c1.697-5.856,3.556-11.722,7.83-16.335c6.386-6.892,13.973-4.241,17.835,2.851c2.995,5.5,4.422,11.573,5.857,17.634
		c1.378,5.818,1.916,11.752,2.727,17.648c0.24,1.743,0.33,3.547,0.357,5.287c0.12,7.417,0.91,14.833,0.434,22.245
		c-0.424,6.616-0.866,13.241-2.3,19.759c-0.681,3.095-0.952,6.279-1.429,9.565c3.715,0.157,7.447-0.334,11.2-0.654
		c2.995-0.256,5.983-0.511,8.964-0.897c4.383-0.569,8.789-0.977,13.155-1.647c4.269-0.656,8.495-1.586,12.749-2.345
		c7.471-1.334,14.828-3.165,22.107-5.271c6.571-1.9,13.033-4.166,19.387-6.718c0.955-0.384,2.123-0.871,2.184-1.9
		c0.057-0.969-1.023-1.544-1.918-1.997c-0.883-0.447-2.406-0.692-2.104-1.868c0.296-1.149,1.776-1.352,2.972-1.402
		c3.869-0.163,7.658,0.187,11.327,1.569c2.241,0.844,3.215,2.564,2.511,4.821c-1.27,4.072-4.689,6.13-8.071,7.885
		c-6.961,3.612-14.504,5.704-22.073,7.69c-7.594,1.993-15.293,3.497-22.976,5.061c-5.193,1.058-10.477,1.671-15.717,2.501
		c-4.919,0.78-9.82,1.704-14.758,2.327c-2.386,0.302-4.784,0.562-7.175,0.855c-4.516,0.555-9.033,1.111-13.559,1.569
		c-0.936,0.095-1.005,0.736-1.189,1.271c-1.251,3.634-2.674,7.193-4.414,10.621c-0.356,0.702-0.333,1.144,0.258,1.835
		c4.623,5.402,10.034,10.03,14.859,15.226c4.484,4.83,8.01,10.304,9.5,16.789c1.656,7.209-1.391,14.307-8.522,18.229
		c-4.468,2.458-9.329,3.641-14.33,3.412c-4.94-0.227-10.404-1.64-12.639-8.822c-1.001-3.217-2.679-6.225-4.079-9.393
		c-3.826,3.796-8.146,6.976-13.018,9.335c-4.561,2.209-9.388,3.499-14.488,2.953c-6.659-0.711-12.611-3.356-18.042-7.207
		c-3.761-2.666-7.126-5.785-10.33-9.092c-0.987-1.019-1.527-2.445-2.873-3.13C252.833,332.504,236.332,334.492,222.083,319.28z
		 M310.669,318.91c3.624-3.438,5.47-7.952,7.97-12.073c0.461-0.76,0.27-1.693,0.123-2.519c-0.462-2.596-0.867-5.217-1.569-7.752
		c-0.566-2.041-0.06-4.492-2.109-6.028c-1.191-0.893-2.373-1.799-3.531-2.733c-8.395-6.779-17.951-11.356-28.074-14.876
		c-1.031-0.358-1.511-0.484-1.805,0.932c-1.459,7.026-3.441,13.9-6.259,20.528c-0.437,1.027-1.319,2.129-0.405,3.587
		c4.773,7.62,10.445,14.421,17.577,19.952c3.066,2.379,6.489,3.844,10.624,4.15C305.837,321.723,308.426,321.038,310.669,318.91z
		 M338.482,220.106c-0.389-4.68-0.807-9.338-1.714-13.938c-0.697-3.529-1.692-6.972-3.843-9.97
		c-0.979-1.366-1.704-1.321-2.684,0.033c-1.038,1.435-1.745,3-2.208,4.665c-1.077,3.872-1.609,7.863-1.965,11.84
		c-0.586,6.535-0.947,13.095-1.215,19.653c-0.187,4.598,0.49,9.181,0.702,13.77c0.258,5.57,1.21,11.085,1.215,16.658
		c0.001,1.776,1.219,1.618,2.164,1.705c1.648,0.15,3.334-0.09,4.978,0.083c1.378,0.145,1.84-0.562,2.059-1.63
		c1.538-7.529,2.795-15.096,2.814-22.813c0.005-2.327,0.001-4.653,0.001-7.739C338.569,228.828,338.845,224.478,338.482,220.106z
		 M194.025,309.065c4.637,7.112,11.689,8.822,18.87,4.538c1.213-0.724,2.65-1.489,3.303-2.627c0.749-1.304-0.617-2.65-1.101-3.955
		c-3.418-9.217-5.321-18.723-5.612-28.554c-0.054-1.83-0.278-3.653-0.375-5.483c-0.03-0.555-0.16-0.758-0.766-0.858
		c-4.497-0.748-10.767,2.527-13.294,6.603c-3.222,5.194-4.256,10.855-4.336,16.806C190.566,300.359,191.363,304.982,194.025,309.065
		z M273.132,230.605c-0.492-3.867-0.779-7.766-1.428-11.604c-0.607-3.586-1.223-7.225-3.532-10.267
		c-1.111-1.463-1.778-1.556-3.093-0.365c-1.499,1.356-2.229,3.151-2.894,4.96c-1.881,5.122-2.837,10.49-3.128,15.88
		c-0.402,7.44-0.107,14.903,0.712,22.328c0.068,0.615,0.444,0.806,0.91,1.112c3.477,2.286,7.403,3.455,11.314,4.673
		c0.653,0.204,1.02,0.006,0.953-0.749c-0.187-2.113,0.553-4.151,0.433-6.283c-0.149-2.649-0.036-5.314-0.036-8.84
		C273.136,238.417,273.628,234.505,273.132,230.605z M269.153,284.89c0.874-3.019,1.648-6.062,2.208-9.159
		c0.393-2.173,0.114-4.414,0.739-6.556c0.177-0.605-0.363-0.657-0.667-0.74c-2.848-0.785-5.681-1.644-8.652-1.882
		c-1.445-0.116-1.545,0.363-1.194,1.708c1.604,6.148,3.691,12.098,6.739,17.763C268.923,285.802,269.042,285.275,269.153,284.89z
		 M336.886,307.956c1.691,5.368,4.375,10.326,6.413,15.553c0.697,1.787,1.346,3.611,2.649,5.09c0.363,0.412,0.812,0.847,1.351,0.563
		c0.487-0.258,1.047-0.627,1.056-1.317c0.017-1.262,0.225-2.571-0.037-3.776c-1.535-7.092-5.667-12.452-11.475-16.866
		C336.862,307.583,336.832,307.783,336.886,307.956z M333.059,273.022c-1.805,0-3.584,0-5.241,0c0.213,3.065,0.185,6.12,1.709,9.137
		C331.594,279.363,332.169,276.129,333.059,273.022z"/>
	<path fill-rule="evenodd" clip-rule="evenodd" d="M614.376,222.839c-2.428-3.474-4.359-6.714-5.73-10.267
		c-2.324-6.024-4.025-12.186-3.676-18.707c0.44-8.207,4.03-14.594,11.313-18.706c2.421-1.367,5.148-1.697,7.801-1.921
		c7.347-0.621,14.372,0.904,20.825,4.389c7.487,4.044,14.233,9.011,17.769,17.202c4.262,9.874,3.539,19.22-2.976,27.957
		c-4.486,6.018-10.367,9.814-17.732,11.353c-0.855,0.179-2.321-0.419-2.452,0.592c-0.111,0.867,1.268,1.451,2.086,2.102
		c6.422,5.106,13.627,8.639,21.417,11.11c0.797,0.252,1.668-0.021,2.441,0.588c0.386,0.303,1.259,0.147,1.297,0.893
		c0.043,0.798-0.299,1.593-1.064,1.939c-1.045,0.474-2.122,0.817-3.33,0.859c-8.047,0.275-15.188-2.266-21.902-6.546
		c-3.837-2.446-7.458-5.127-10.833-8.156c-0.508-0.455-1.022-0.494-1.622-0.492c-9.745,0.026-18.964-2.407-27.508-6.867
		c-8.621-4.5-15.613-10.966-20.036-19.824c-2.59-5.188-3.919-10.736-3.415-16.544c0.791-9.104,6.645-16.653,15.163-20.186
		c4.208-1.745,8.644-2.349,13.181-1.997c1.72,0.134,3.398,0.562,5.008,1.258c0.964,0.417,1.36,0.962,1.379,2.069
		c0.021,1.299-0.865,1.576-1.689,1.804c-2.646,0.731-5.315,1.281-7.886,2.37c-6.706,2.842-10.993,7.717-12.789,14.702
		c-1.494,5.811,0.209,10.994,3.736,15.648c5.006,6.604,12.021,10.168,19.626,12.808C613.13,222.392,613.481,222.52,614.376,222.839z
		 M618.45,204.331c0.739,7.879,4.41,14.282,9.532,20.049c0.971,1.094,1.978,1.252,3.319,0.897c5.019-1.331,9.278-3.801,12.386-8.045
		c3.063-4.182,4.306-8.935,3.379-13.966c-0.729-3.955-2.516-7.638-4.579-11.128c-2.786-4.71-6.307-8.253-12.244-8.63
		c-3.981-0.252-7.105,0.827-9.37,4.229c-2.425,3.642-2.495,7.785-2.791,11.178C618.165,201.209,618.303,202.767,618.45,204.331z"/>
	<path fill-rule="evenodd" clip-rule="evenodd" fill="#529BB9" d="M622.59,441.34c-5.518,0-10.629-0.031-15.739,0.021
		c-1.31,0.014-1.877-0.925-2.514-1.697c-4.677-5.665-9.301-11.371-13.941-17.064c-1.027-1.261-2.051-2.524-3.132-3.856
		c-0.463,0.573-0.26,1.179-0.262,1.72c-0.018,6.383-0.054,12.766,0.022,19.147c0.017,1.416-0.396,1.806-1.785,1.763
		c-3.188-0.1-6.384-0.113-9.571,0.004c-1.493,0.055-1.886-0.372-1.881-1.872c0.057-16.222,0.035-32.444,0.035-48.667
		c0-9.44,0.025-18.882-0.028-28.322c-0.007-1.338,0.27-1.849,1.729-1.815c4.319,0.098,8.652-0.152,12.962,0.08
		c5.836,0.314,11.631,1.008,16.573,4.653c5.666,4.18,9.521,9.616,10.999,16.511c1.527,7.121,0.867,14.047-2.689,20.563
		c-2.735,5.011-6.673,8.757-11.805,11.19c-1.412,0.67-1.26,1.128-0.396,2.149c4.708,5.563,9.284,11.237,14.054,16.744
		C617.628,435.369,619.95,438.208,622.59,441.34z M587.003,403.072c0.003,0.649-0.329,1.509,0.913,1.567
		c3.284,0.154,6.482-0.231,9.259-2.06c4.891-3.218,7.01-7.817,7.036-13.72c0.038-8.568-6.853-15.958-15.578-15.396
		c-1.281,0.082-1.692,0.365-1.671,1.678c0.075,4.654,0.029,9.31,0.029,13.965S586.98,398.417,587.003,403.072z"/>
	<path fill-rule="evenodd" clip-rule="evenodd" fill="#529BB9" d="M242.901,441.34c-4.559,0-8.879-0.021-13.198,0.017
		c-0.906,0.009-1.323-0.216-1.661-1.161c-1.143-3.194-2.54-6.298-3.663-9.499c-0.36-1.024-0.791-1.344-1.8-1.341
		c-8.71,0.024-17.419,0.042-26.129-0.018c-1.293-0.009-1.746,0.653-2.091,1.646c-1.028,2.959-2.125,5.897-3.046,8.89
		c-0.333,1.08-0.764,1.505-1.906,1.488c-3.922-0.059-7.845-0.047-11.768-0.009c-1.305,0.013-1.38-0.363-0.916-1.521
		c9.313-23.207,18.585-46.431,27.856-69.655c1.259-3.152,2.499-6.313,3.676-9.497c0.229-0.621,0.399-1.057,1.128-1.147
		c0.837-0.105,1.025,0.53,1.228,1.038c6.302,15.76,12.564,31.536,18.877,47.292c4.201,10.485,8.474,20.942,12.708,31.415
		C242.44,439.881,242.619,440.51,242.901,441.34z M199.927,416.845c6.433,0,12.734,0,19.23,0
		c-3.198-8.539-6.321-16.879-9.603-25.639C206.271,399.95,203.12,408.342,199.927,416.845z"/>
</g>
</svg>
